<?xml version="1.0" standalone="no"?>
<!DOCTYPE svg PUBLIC "-//W3C//DTD SVG 20010904//EN"
 "http://www.w3.org/TR/2001/REC-SVG-20010904/DTD/svg10.dtd">
<svg version="1.0" xmlns="http://www.w3.org/2000/svg"
 width="1920.000000pt" height="1080.000000pt" viewBox="0 0 1920.000000 1080.000000"
 preserveAspectRatio="xMidYMid meet">

<g transform="translate(0.000000,1080.000000) scale(0.100000,-0.100000)"
fill="#000000" stroke="none">
<path d="M6660 8800 c-14 -4 -54 -9 -90 -9 -58 -1 -255 -22 -350 -36 -122 -19
-175 -29 -260 -45 -52 -10 -158 -30 -235 -45 -218 -40 -247 -46 -290 -55 -69
-14 -191 -38 -440 -85 -224 -42 -382 -73 -440 -85 -22 -5 -103 -21 -180 -35
-205 -38 -245 -46 -292 -56 -23 -5 -54 -10 -70 -10 -21 -2 -19 -3 12 -8 38 -6
41 -9 67 -71 14 -36 27 -72 27 -80 0 -8 -13 17 -28 55 l-27 70 -889 0 -888 0
-1138 -3145 c-626 -1730 -1139 -3148 -1139 -3153 0 -4 361 -6 801 -5 l802 3
187 555 188 555 1178 0 1179 0 189 -558 189 -557 809 0 810 0 -6 24 c-3 13 -9
32 -13 42 -4 12 -3 15 5 10 7 -4 12 -16 12 -26 0 -10 5 -22 10 -25 10 -6 122
12 225 35 22 5 126 25 230 45 523 99 518 98 754 157 144 37 281 78 326 98 11
5 52 20 90 34 289 102 646 293 885 473 528 397 884 880 1075 1461 62 187 68
210 110 407 19 86 35 215 45 345 6 80 15 187 20 238 5 52 5 104 0 120 -5 15
-11 88 -15 162 -7 164 -41 416 -74 565 -5 22 -12 56 -16 75 -56 266 -179 616
-304 865 -246 486 -619 904 -1061 1190 -137 89 -355 201 -505 260 -66 26 -129
51 -140 55 -72 29 -238 77 -340 99 -222 48 -301 60 -575 86 -103 10 -395 14
-420 5z m-2511 -693 c7 -21 11 -41 8 -43 -4 -4 -37 80 -37 95 0 13 17 -18 29
-52z m40 -110 c7 -21 11 -41 8 -43 -4 -4 -37 80 -37 95 0 13 17 -18 29 -52z
m31 -79 c0 -6 16 -55 36 -110 19 -55 34 -101 32 -104 -2 -2 -21 45 -43 104
-21 59 -40 113 -43 121 -4 9 -1 12 6 7 7 -4 12 -12 12 -18z m90 -256 c0 -15
-2 -15 -10 -2 -13 20 -13 33 0 25 6 -3 10 -14 10 -23z m20 -62 c0 -13 -1 -13
-10 0 -5 8 -10 22 -10 30 0 13 1 13 10 0 5 -8 10 -22 10 -30z m20 -48 c0 -15
-2 -15 -10 -2 -13 20 -13 33 0 25 6 -3 10 -14 10 -23z m30 -96 c-1 -6 -7 4
-15 23 -8 18 -15 38 -15 45 1 6 7 -4 15 -23 8 -18 15 -38 15 -45z m27 -64 c7
-20 13 -41 12 -47 0 -11 -23 39 -34 76 -12 38 7 13 22 -29z m2410 -2 c544 -45
999 -309 1281 -744 153 -235 273 -558 327 -876 9 -52 21 -124 28 -160 19 -102
15 -544 -6 -653 -24 -125 -59 -256 -86 -322 -89 -213 -191 -373 -336 -524
-150 -156 -295 -260 -508 -365 -201 -98 -382 -156 -662 -211 -99 -19 -205 -40
-235 -46 -30 -6 -73 -14 -95 -19 -22 -5 -92 -18 -155 -30 -63 -12 -134 -25
-157 -31 -23 -5 -55 -9 -70 -9 -27 0 -30 4 -41 58 -18 87 -49 246 -67 347 -17
91 -66 347 -85 440 -13 62 -32 166 -60 315 -11 63 -25 133 -30 155 -13 62 -52
263 -90 465 -47 250 -66 348 -80 415 -5 22 -18 92 -30 155 -32 177 -90 480
-100 525 -15 70 -40 200 -80 415 -11 63 -25 133 -30 155 -5 22 -18 92 -30 155
-11 63 -25 129 -29 146 -15 55 -26 50 259 104 110 21 308 59 415 80 128 25
155 30 230 40 199 28 346 34 522 20z m-2377 -88 c0 -15 -2 -15 -10 -2 -13 20
-13 33 0 25 6 -3 10 -14 10 -23z m19 -62 c0 -10 -3 -8 -9 5 -12 27 -12 43 0
25 5 -8 9 -22 9 -30z m21 -48 c0 -15 -2 -15 -10 -2 -13 20 -13 33 0 25 6 -3
10 -14 10 -23z m29 -92 c0 -8 -6 0 -14 19 -8 18 -15 38 -14 45 1 15 28 -46 28
-64z m21 -48 c0 -15 -2 -15 -10 -2 -13 20 -13 33 0 25 6 -3 10 -14 10 -23z
m19 -62 c0 -10 -3 -8 -9 5 -12 27 -12 43 0 25 5 -8 9 -22 9 -30z m21 -48 c0
-15 -2 -15 -10 -2 -13 20 -13 33 0 25 6 -3 10 -14 10 -23z m38 -112 c0 -17
-22 32 -32 70 -3 14 3 7 13 -15 11 -22 19 -47 19 -55z m31 -80 c12 -30 21 -59
20 -65 0 -11 -31 63 -44 105 -13 43 2 18 24 -40z m40 -120 c0 -10 -3 -8 -9 5
-12 27 -12 43 0 25 5 -8 9 -22 9 -30z m21 -48 c0 -15 -2 -15 -10 -2 -13 20
-13 33 0 25 6 -3 10 -14 10 -23z m-1137 -1137 c212 -627 384 -1141 383 -1143
-2 -1 -352 -1 -778 0 l-775 3 385 1148 c212 631 388 1144 392 1140 4 -4 181
-521 393 -1148z m1166 1062 c7 -21 11 -41 8 -43 -4 -4 -37 80 -37 95 0 13 17
-18 29 -52z m56 -166 c3 -14 -3 -6 -13 19 -27 63 -36 104 -12 51 11 -24 23
-55 25 -70z m24 -71 c0 -10 -3 -8 -9 5 -12 27 -12 43 0 25 5 -8 9 -22 9 -30z
m21 -48 c0 -15 -2 -15 -10 -2 -13 20 -13 33 0 25 6 -3 10 -14 10 -23z m29 -75
c7 -21 11 -41 8 -43 -4 -4 -37 80 -37 95 0 13 17 -18 29 -52z m42 -119 c10
-29 18 -57 18 -63 0 -11 -32 64 -44 105 -14 46 8 11 26 -42z m38 -118 c0 -10
-3 -8 -9 5 -12 27 -12 43 0 25 5 -8 9 -22 9 -30z m21 -48 c0 -15 -2 -15 -10
-2 -13 20 -13 33 0 25 6 -3 10 -14 10 -23z m29 -75 c7 -21 11 -41 8 -43 -4 -4
-37 80 -37 95 0 13 17 -18 29 -52z m43 -119 c10 -29 18 -57 17 -63 0 -11 -31
62 -44 105 -14 45 8 11 27 -42z m56 -168 c0 -17 -22 32 -32 70 -3 14 3 7 13
-15 11 -22 19 -47 19 -55z m31 -73 c7 -21 11 -41 8 -43 -4 -4 -37 80 -37 95 0
13 17 -18 29 -52z m31 -79 c0 -6 16 -55 36 -110 19 -55 34 -101 32 -104 -2 -2
-21 45 -43 104 -21 59 -40 113 -43 121 -4 9 -1 12 6 7 7 -4 12 -12 12 -18z
m99 -281 c7 -21 11 -41 8 -43 -4 -4 -37 80 -37 95 0 13 17 -18 29 -52z m31
-85 c0 -15 -2 -15 -10 -2 -13 20 -13 33 0 25 6 -3 10 -14 10 -23z m29 -92 c0
-8 -6 0 -14 19 -8 18 -15 38 -14 45 1 15 28 -46 28 -64z m40 -110 c0 -17 -23
34 -33 71 -3 13 3 6 13 -16 11 -22 20 -47 20 -55z m28 -68 c7 -20 13 -41 12
-47 0 -11 -23 39 -34 76 -12 38 7 13 22 -29z m33 -90 c0 -15 -2 -15 -10 -2
-13 20 -13 33 0 25 6 -3 10 -14 10 -23z m40 -116 c17 -48 30 -90 28 -92 -4 -4
-68 167 -68 181 0 18 11 -5 40 -89z m50 -134 c0 -15 -2 -15 -10 -2 -13 20 -13
33 0 25 6 -3 10 -14 10 -23z m19 -62 c0 -10 -3 -8 -9 5 -12 27 -12 43 0 25 5
-8 9 -22 9 -30z m21 -48 c0 -15 -2 -15 -10 -2 -13 20 -13 33 0 25 6 -3 10 -14
10 -23z m34 -102 c3 -14 -3 -7 -13 15 -11 22 -19 47 -19 55 0 17 22 -32 32
-70z m36 -104 c-1 -6 -7 4 -15 23 -8 18 -15 38 -15 45 1 6 7 -4 15 -23 8 -18
15 -38 15 -45z m20 -44 c0 -15 -2 -15 -10 -2 -13 20 -13 33 0 25 6 -3 10 -14
10 -23z m19 -55 c0 -21 -1 -21 -9 -2 -12 28 -12 37 0 30 6 -3 10 -16 9 -28z
m21 -55 c0 -15 -2 -15 -10 -2 -13 20 -13 33 0 25 6 -3 10 -14 10 -23z m29 -75
c7 -21 11 -41 8 -43 -4 -4 -37 80 -37 95 0 13 17 -18 29 -52z m40 -127 c0 -10
-3 -8 -9 5 -12 27 -12 43 0 25 5 -8 9 -22 9 -30z m21 -48 c0 -15 -2 -15 -10
-2 -13 20 -13 33 0 25 6 -3 10 -14 10 -23z m19 -62 c0 -10 -3 -8 -9 5 -12 27
-12 43 0 25 5 -8 9 -22 9 -30z m21 -48 c0 -15 -2 -15 -10 -2 -13 20 -13 33 0
25 6 -3 10 -14 10 -23z m29 -75 c7 -21 11 -41 8 -43 -4 -4 -37 80 -37 95 0 13
17 -18 29 -52z m40 -127 c0 -10 -3 -8 -9 5 -12 27 -12 43 0 25 5 -8 9 -22 9
-30z m21 -48 c0 -15 -2 -15 -10 -2 -13 20 -13 33 0 25 6 -3 10 -14 10 -23z
m19 -62 c0 -10 -3 -8 -9 5 -12 27 -12 43 0 25 5 -8 9 -22 9 -30z m21 -48 c0
-15 -2 -15 -10 -2 -13 20 -13 33 0 25 6 -3 10 -14 10 -23z m29 -75 c7 -21 11
-41 8 -43 -4 -4 -37 80 -37 95 0 13 17 -18 29 -52z m40 -117 c12 -30 21 -59
20 -65 0 -11 -31 63 -44 105 -13 43 2 18 24 -40z m50 -133 c7 -21 11 -41 8
-43 -4 -4 -37 80 -37 95 0 13 17 -18 29 -52z m31 -79 c0 -6 16 -55 36 -110 19
-55 34 -101 32 -104 -2 -2 -21 45 -43 104 -21 59 -40 113 -43 121 -4 9 -1 12
6 7 7 -4 12 -12 12 -18z m108 -318 c0 -17 -22 32 -32 70 -3 14 3 7 13 -15 11
-22 19 -47 19 -55z m22 -48 c0 -15 -2 -15 -10 -2 -13 20 -13 33 0 25 6 -3 10
-14 10 -23z m20 -62 c0 -13 -1 -13 -10 0 -5 8 -10 22 -10 30 0 13 1 13 10 0 5
-8 10 -22 10 -30z m31 -82 c10 -29 18 -57 18 -63 0 -11 -32 64 -44 105 -14 46
8 11 26 -42z m58 -168 c0 -17 -23 34 -33 71 -3 13 3 6 13 -16 11 -22 20 -47
20 -55z"/>
<path d="M12510 6658 l0 -222 -42 41 c-24 23 -70 55 -103 70 -53 25 -71 28
-155 28 -123 -1 -187 -25 -270 -102 -70 -64 -113 -144 -135 -248 -53 -252 43
-494 233 -587 62 -31 73 -33 172 -33 125 0 171 17 250 91 l50 47 0 -67 0 -66
145 0 145 0 0 635 0 635 -145 0 -145 0 0 -222z m-155 -339 c25 -7 58 -29 86
-58 39 -38 49 -56 59 -106 26 -123 -19 -233 -113 -280 -82 -40 -165 -29 -231
33 -46 44 -66 97 -66 182 0 116 47 194 136 225 48 17 77 18 129 4z"/>
<path d="M10722 6228 c-115 -321 -213 -591 -217 -600 -7 -17 4 -18 147 -18
l154 0 34 105 34 105 227 0 228 0 19 -52 c11 -29 27 -77 36 -105 l18 -53 153
0 153 0 -31 88 c-18 48 -115 318 -217 600 l-185 512 -171 0 -171 0 -211 -582z
m524 -160 c5 -17 -6 -18 -145 -18 l-150 0 69 203 c37 111 72 211 76 221 7 17
67 -146 150 -406z"/>
<path d="M13513 6569 c-64 -12 -126 -43 -172 -84 l-41 -37 0 61 0 61 -145 0
-145 0 0 -480 0 -480 144 0 145 0 3 303 3 304 27 40 c14 22 42 47 61 56 43 21
138 22 176 2 39 -20 78 -69 91 -113 6 -21 10 -154 10 -314 l0 -278 145 0 145
0 0 298 c0 163 -4 323 -10 355 -27 167 -130 278 -285 306 -66 12 -92 12 -152
0z"/>
<path d="M14408 6561 c-75 -24 -115 -50 -172 -111 -107 -114 -150 -309 -111
-495 31 -144 115 -259 233 -317 62 -31 73 -33 172 -33 125 0 171 17 250 91
l50 47 0 -67 0 -66 145 0 145 0 0 480 0 480 -145 0 -145 0 0 -66 0 -66 -56 51
c-93 85 -236 113 -366 72z m267 -242 c25 -7 58 -29 86 -58 39 -38 49 -56 59
-106 26 -123 -19 -233 -113 -280 -82 -40 -165 -29 -231 33 -46 44 -66 97 -66
182 0 116 47 194 136 225 48 17 77 18 129 4z"/>
<path d="M15843 6569 c-64 -12 -126 -43 -172 -84 l-41 -37 0 61 0 61 -145 0
-145 0 0 -480 0 -480 144 0 145 0 3 303 3 304 27 40 c14 22 42 47 61 56 43 21
138 22 176 2 39 -20 78 -69 91 -113 6 -21 10 -154 10 -314 l0 -278 145 0 145
0 0 298 c0 163 -4 323 -10 355 -27 167 -130 278 -285 306 -66 12 -92 12 -152
0z"/>
<path d="M13550 5328 l0 -222 -42 41 c-24 23 -70 55 -103 70 -53 25 -71 28
-155 28 -123 -1 -187 -25 -270 -102 -70 -64 -113 -144 -135 -248 -53 -252 43
-494 233 -587 62 -31 73 -33 172 -33 125 0 171 17 250 91 l50 47 0 -67 0 -66
145 0 145 0 0 635 0 635 -145 0 -145 0 0 -222z m-155 -339 c25 -7 58 -29 86
-58 39 -38 49 -56 59 -106 26 -123 -19 -233 -113 -280 -82 -40 -165 -29 -231
33 -46 44 -66 97 -66 182 0 116 47 194 136 225 48 17 77 18 129 4z"/>
<path d="M17370 4915 l0 -635 145 0 145 0 0 635 0 635 -145 0 -145 0 0 -635z"/>
<path d="M10580 4879 l0 -601 293 5 c235 4 304 8 352 22 312 88 484 376 421
705 -34 181 -144 330 -299 405 -121 57 -175 65 -489 65 l-278 0 0 -601z m505
351 c178 -29 275 -153 275 -351 0 -235 -133 -349 -408 -349 l-82 0 0 355 0
355 78 0 c42 0 104 -4 137 -10z"/>
<path d="M12118 5234 c-214 -51 -348 -235 -348 -474 0 -291 195 -490 480 -490
189 0 353 94 424 244 42 89 47 86 -121 86 l-146 0 -36 -39 c-101 -109 -279
-56 -306 92 l-7 37 330 0 c372 0 342 -7 342 83 0 79 -25 181 -61 247 -95 179
-327 269 -551 214z m242 -247 c38 -26 70 -79 70 -116 0 -21 -4 -21 -185 -21
-136 0 -185 3 -185 12 0 6 9 31 21 55 22 45 60 79 107 94 46 15 130 3 172 -24z"/>
<path d="M14338 5234 c-214 -51 -348 -235 -348 -474 0 -291 195 -490 480 -490
189 0 353 94 424 244 42 89 47 86 -121 86 l-146 0 -36 -39 c-101 -109 -279
-56 -306 92 l-7 37 330 0 c372 0 342 -7 342 83 0 79 -25 181 -61 247 -95 179
-327 269 -551 214z m242 -247 c38 -26 70 -79 70 -116 0 -21 -4 -21 -185 -21
-136 0 -185 3 -185 12 0 6 9 31 21 55 22 45 60 79 107 94 46 15 130 3 172 -24z"/>
<path d="M15435 5240 c-234 -48 -384 -234 -385 -476 -1 -289 203 -494 490
-494 243 1 428 135 486 353 17 63 18 186 3 259 -36 173 -174 311 -350 353 -68
16 -179 18 -244 5z m190 -259 c79 -36 119 -109 120 -221 0 -154 -92 -251 -227
-238 -60 6 -113 45 -145 108 -28 55 -32 189 -8 248 44 103 159 149 260 103z"/>
<path d="M16448 5231 c-75 -24 -115 -50 -172 -111 -107 -114 -150 -309 -111
-495 31 -144 115 -259 233 -317 62 -31 73 -33 172 -33 125 0 170 17 251 92
l52 48 -5 -110 c-5 -121 -17 -155 -67 -198 -89 -75 -250 -56 -310 36 l-24 37
-140 0 -140 0 7 -42 c16 -106 112 -224 220 -274 107 -49 266 -67 387 -44 130
25 249 112 302 220 53 109 57 150 57 698 l0 502 -145 0 -145 0 0 -66 0 -66
-56 51 c-93 85 -236 113 -366 72z m267 -242 c25 -7 58 -29 86 -58 39 -38 49
-56 59 -106 26 -123 -19 -233 -113 -280 -82 -40 -165 -29 -231 33 -46 44 -66
97 -66 182 0 116 47 194 136 225 48 17 77 18 129 4z"/>
<path d="M17870 4928 c0 -339 8 -403 55 -484 79 -134 247 -200 405 -160 70 18
149 63 180 104 l20 25 0 -67 0 -66 145 0 145 0 0 480 0 480 -144 0 -145 0 -3
-303 -3 -304 -27 -40 c-75 -113 -264 -101 -319 20 -17 38 -19 69 -19 335 l0
292 -145 0 -145 0 0 -312z"/>
</g>
</svg>
