<svg width="439" height="439" viewBox="0 0 439 439" fill="none" xmlns="http://www.w3.org/2000/svg">
<path d="M219.004 0.00354685C239.004 0.503547 236.749 51.8144 236.749 51.8144C236.749 51.8144 312.004 20.1844 328.504 29.344C345.004 38.5035 306.453 92.0582 306.453 92.0582C306.453 92.0582 398.323 91.0035 408.663 109.504C419.004 128.004 346.697 161.763 346.697 161.763C346.697 161.763 438.504 202.004 438.004 219.004C437.504 236.004 346.697 242.25 346.697 242.25C346.697 242.25 419.323 312.004 408.663 328.504C398.004 345.004 306.453 311.954 306.453 311.954C306.453 311.954 345.004 399.823 328.504 408.663C312.004 417.504 236.749 352.198 236.749 352.198C236.749 352.198 240.504 440.004 219.004 438.004C197.504 436.004 156.262 352.198 156.262 352.198C156.262 352.198 126.504 418.823 109.504 408.663C92.5039 398.504 86.5573 311.954 86.5573 311.954C86.5573 311.954 38.1848 344.504 29.3443 328.504C20.5039 312.504 46.3136 242.25 46.3136 242.25C46.3136 242.25 0.503906 240.504 0.00390625 219.004C-0.496094 197.504 46.3136 161.763 46.3136 161.763C46.3136 161.763 20.6846 127.004 29.3443 109.504C38.0041 92.0035 86.5573 92.0582 86.5573 92.0582C86.5573 92.0582 94.0037 41.1844 109.504 29.344C125.004 17.5035 156.262 51.8144 156.262 51.8144C156.262 51.8144 199.004 -0.496453 219.004 0.00354685Z" fill="black"/>
</svg>
